<svg width="23" height="22" viewBox="0 0 23 22" fill="none" xmlns="http://www.w3.org/2000/svg">
<path fill-rule="evenodd" clip-rule="evenodd" d="M13.8021 1.99537L11.5078 0.00488281L9.21359 1.99537L6.23146 1.41868L5.23982 4.28963L2.36888 5.28126L2.94557 8.26339L0.955078 10.5576L2.94557 12.8519L2.36888 15.834L5.23982 16.8257L6.23146 19.6966L9.21359 19.1199L11.5078 21.1104L13.8021 19.1199L16.7842 19.6966L17.7759 16.8257L20.6468 15.834L20.0701 12.8519L22.0606 10.5576L20.0701 8.26339L20.6468 5.28126L17.7759 4.28963L16.7842 1.41868L13.8021 1.99537ZM16.1223 2.56522L13.5143 3.06956L11.5078 1.32879L9.50141 3.06956L6.89341 2.56522L6.02618 5.07598L3.51542 5.94322L4.01975 8.55122L2.27898 10.5576L4.01975 12.5641L3.51542 15.1721L6.02618 16.0393L6.89341 18.5501L9.50141 18.0457L11.5078 19.7865L13.5143 18.0457L16.1223 18.5501L16.9895 16.0393L19.5003 15.1721L18.9959 12.5641L20.7367 10.5576L18.9959 8.55122L19.5003 5.94322L16.9895 5.07598L16.1223 2.56522Z" fill="#417A82"/>
</svg>
